<svg width="209" height="208" viewBox="0 0 209 208" fill="none" xmlns="http://www.w3.org/2000/svg">
<path d="M208 104C208 161.438 160.938 207.5 103.5 207.5C46.0624 207.5 6 158 0 104C0 46.5624 46.5624 0 104 0C165 0 210.5 48.5 208 104Z" fill="#6637ED"/>
<path d="M102.976 0.0028911C126.696 -0.172624 149.889 7.65039 169.07 21.5411C161.021 26.6812 153.123 31.9716 145.526 37.6883C137.904 33.7769 129.228 27.0823 120.527 26.5808C113.306 28.0601 106.812 34.6796 100.694 38.6662C72.9881 57.8475 44.2037 75.5745 16.8234 95.2321C15.0181 96.9873 8.49893 100.824 12.5107 103.481C31.9678 119.403 53.5059 133.118 74.1414 147.536C74.0161 166.04 74.5677 184.569 74.1163 203.099C53.3304 195.075 34.7258 183.315 20.9354 165.588C10.2039 151.171 2.7571 134.146 1.00196 116.169C-4.28856 81.1158 11.7836 44.2326 39.4899 22.5691C57.4676 7.87598 80.0337 1.05598 102.976 0.0028911Z" fill="#54FA80"/>
<path d="M189.58 43.3297C208.937 66.4475 209.488 94.9561 206.881 123.59C202.718 150.118 185.217 173.863 164.005 189.584C146.704 201.443 124.94 207.261 104.129 207.687C103.402 185.497 104.556 163.156 103.327 140.991C103.302 134.347 98.6633 131.438 94.1751 127.502C83.1929 118.926 71.609 111.179 60.6017 102.629C80.9113 87.3588 102.349 73.443 123.311 59.0759C127.949 62.5361 132.563 65.9961 137.151 69.5064C137.226 83.6228 137.377 97.7393 136.775 111.856C131.76 117.748 126.319 122.938 124.991 130.912C122.909 142.822 129.78 154.155 141.012 158.317C157.16 164.962 176.667 151.246 174.686 133.594C175.037 121.534 161.773 117.247 162.5 106.164C162.701 91.2704 161.648 75.8752 163.503 61.132C171.026 54.0111 180.779 48.7205 189.58 43.3297Z" fill="#54FA80"/>
</svg>
